<svg xmlns="http://www.w3.org/2000/svg" width="110" height="110" viewBox="0 0 110 110">
  <path id="Path_1" data-name="Path 1" d="M103,73.385A29.615,29.615,0,1,0,132.615,103,29.651,29.651,0,0,0,103,73.385Zm0,50.769A21.154,21.154,0,1,1,124.154,103,21.152,21.152,0,0,1,103,124.154Zm0-59.231a4.232,4.232,0,0,0,4.231-4.231V52.231a4.231,4.231,0,0,0-8.462,0v8.462A4.232,4.232,0,0,0,103,64.923Zm0,76.154a4.232,4.232,0,0,0-4.231,4.231v8.462a4.231,4.231,0,0,0,8.462,0v-8.462A4.232,4.232,0,0,0,103,141.077Zm32.9-65,5.983-5.983a4.23,4.23,0,0,0-5.983-5.983l-5.983,5.983a4.23,4.23,0,0,0,5.983,5.983ZM70.1,129.927l-5.983,5.983a4.23,4.23,0,1,0,5.983,5.982l5.983-5.982a4.23,4.23,0,0,0-5.983-5.983ZM64.923,103a4.232,4.232,0,0,0-4.231-4.231H52.231a4.231,4.231,0,0,0,0,8.462h8.462A4.232,4.232,0,0,0,64.923,103Zm88.846-4.231h-8.462a4.231,4.231,0,0,0,0,8.462h8.462a4.231,4.231,0,1,0,0-8.462ZM70.09,76.073a4.23,4.23,0,0,0,5.983-5.983L70.09,64.108a4.23,4.23,0,0,0-5.983,5.983Zm65.82,53.848a4.23,4.23,0,0,0-5.983,5.983l5.983,5.983a4.23,4.23,0,1,0,5.982-5.983Z" transform="translate(-48 -48)" fill="#18232b"/>
</svg>
