<svg width="32" height="32" xmlns="http://www.w3.org/2000/svg">
 <title/>
 <desc/>

 <g>
  <title>background</title>
  <rect fill="none" id="canvas_background" height="402" width="582" y="-1" x="-1"/>
 </g>
 <g>
  <title>Layer 1</title>
  <path fill="#18232b" id="clouds" d="m28.19435,18.99489c2.11501,-0.10614 3.80565,-1.85412 3.80565,-3.99489c0,-1.90067 -1.33424,-3.49714 -3.12111,-3.90124c0.07928,-0.35356 0.12111,-0.72128 0.12111,-1.09876c0,-2.76142 -2.23858,-5 -5,-5c-1.86833,0 -3.49732,1.02474 -4.35558,2.54283c-0.63749,-0.34619 -1.36799,-0.54283 -2.14442,-0.54283c-1.72843,0 -3.22925,0.97446 -3.98307,2.40397c1.29307,0.42823 2.43991,1.17741 3.34615,2.15316c0.8059,-0.35813 1.69817,-0.55713 2.63692,-0.55713c3.34653,0 6.10237,2.52901 6.46058,5.78009c0.92669,0.52672 1.69937,1.29309 2.23377,2.2148l0,0l0,0zm-0.19435,3.00511c0,2.7558 -2.23833,5 -4.99944,5l-17.00112,0c-2.76695,0 -4.99944,-2.23858 -4.99944,-5c0,-2.05087 1.23966,-3.81839 3.0119,-4.58846c-0.0079,-0.13617 -0.0119,-0.27339 -0.0119,-0.41154c0,-3.86599 3.13401,-7 7,-7c2.29795,0 4.33727,1.10728 5.61354,2.8174c0.83903,-0.5183 1.82782,-0.8174 2.88646,-0.8174c3.00902,0 5.45367,2.41638 5.49935,5.41453c1.7683,0.77076 3.00065,2.53381 3.00065,4.58547l0,0z"/>
 </g>
</svg>